<?xml version="1.0" encoding="utf-8"?>
<!-- Generator: Adobe Illustrator 27.2.0, SVG Export Plug-In . SVG Version: 6.00 Build 0)  -->
<svg version="1.1" id="Capa_1" xmlns="http://www.w3.org/2000/svg" xmlns:xlink="http://www.w3.org/1999/xlink" x="0px" y="0px"
	 viewBox="0 0 284.4 110.2" style="enable-background:new 0 0 284.4 110.2;" xml:space="preserve">
<path d="M66.6,39.5c0.1,7.4-0.9,14.1-2.6,20.7C62.4,66,60.3,71.6,57.5,77c-1.7,3.3-3.6,6.4-5.7,9.4c-1.9,2.6-3.9,5.1-6.2,7.3
	c-1.8,1.8-3.8,3.3-5.9,4.8c-5.3,3.7-11,5.3-17.4,4.9c-2.6-0.2-5.1-0.7-7.4-2C11.6,99.7,9,97.1,7,93.9C3.9,89,2.4,83.5,1.6,77.8
	c-0.7-4.5-0.5-9.1,0-13.6c0.7-6.1,2.1-12.1,4.1-17.8c1-2.8,2.1-5.4,3.3-8.1c1.8-4,4-7.7,6.4-11.3c1.4-2,3-4,4.7-5.9
	c2.6-3,5.5-5.7,8.9-7.8c0.8-0.5,1.7-1.1,2.5-1.6c3.1-1.7,6.3-2.9,9.8-3.3C43,8.3,44.5,7.9,46,8.1c3,0.4,5.8,1.4,8.4,3.1
	c3.4,2.4,6,5.5,7.9,9.1C65.5,26.5,66.4,33.2,66.6,39.5z M49.9,27.6c-0.1-1.5-0.1-3.1-0.3-4.6c-0.2-1.7-0.5-3.3-1.5-4.7
	c-1.1-1.5-2.6-1.7-4.1-0.6c-2.6,1.9-4.6,4.3-6.2,7c-2.1,3.4-4,6.9-5.7,10.5c-1.9,3.8-3.5,7.7-5.1,11.7c-2.6,6.3-4.8,12.8-6.8,19.4
	c-1.6,5.4-3,10.7-3.7,16.3c-0.4,3.1-0.3,6.3,0.8,9.3c0.6,1.8,2.1,2.5,3.8,1.8c0.9-0.4,1.8-0.8,2.5-1.5c1.7-1.7,3.2-3.6,4.7-5.4
	c2.9-3.7,5.4-7.8,7.5-12.1c1.9-3.8,3.8-7.7,5.5-11.7c2.8-6.3,4.9-12.9,6.5-19.6C48.8,38.1,49.6,32.9,49.9,27.6z"/>
<path d="M134.8,40.5c-0.1,7.9-1.3,15.1-3.3,22.1c-1.5,4.9-3.3,9.7-5.6,14.3c-1.7,3.3-3.6,6.5-5.7,9.5c-1.8,2.6-3.8,5-6.1,7.2
	c-1.8,1.8-3.8,3.4-5.9,4.9c-5.3,3.7-11,5.3-17.4,4.9c-2.6-0.2-5.1-0.7-7.4-2c-3.3-1.8-5.9-4.4-7.9-7.6c-2.2-3.5-3.6-7.2-4.6-11.2
	c-1.4-5.5-1.7-11.2-1.1-16.8c0.7-7.6,2.5-15,5.3-22.2c1.1-2.9,2.6-5.8,3.9-8.6c1.8-3.7,4.1-7.1,6.6-10.5c0.8-1.1,1.7-2.2,2.7-3.2
	c2-2,4.1-3.9,6.1-5.8c2.1-1.9,4.4-3.3,6.9-4.5c2.8-1.4,5.7-2.3,8.7-2.7c1.7-0.2,3.4-0.6,5-0.3c2.5,0.4,5.1,1,7.2,2.7
	c1.4,1.1,2.9,2.1,4.2,3.4c2.7,2.7,4.5,5.9,5.8,9.4c1.6,4.2,2.4,8.5,2.7,12.9C134.7,38,134.8,39.5,134.8,40.5z M118.1,27.6
	c-0.1-1.5-0.1-3.1-0.3-4.6c-0.2-1.6-0.4-3.2-1.4-4.6c-1.1-1.5-2.7-1.8-4.2-0.6c-2,1.5-3.7,3.2-5,5.4c-1.8,2.9-3.7,5.7-5.3,8.7
	c-2.4,4.7-4.5,9.5-6.6,14.3c-2.8,6.7-5.2,13.6-7.2,20.5c-1.5,5.2-2.9,10.4-3.6,15.8c-0.4,3.2-0.3,6.3,0.8,9.4c0.7,1.8,2.2,2.6,4,1.8
	c0.8-0.4,1.6-0.8,2.2-1.4c1.6-1.7,3.2-3.6,4.7-5.4c3-3.8,5.4-7.9,7.5-12.2c1.6-3.1,3.1-6.2,4.5-9.4c2.8-6.2,5-12.7,6.7-19.3
	C116.7,39.8,117.8,33.8,118.1,27.6z"/>
<path d="M135.1,101.7c0.7-2.1,1.2-4.1,2-6c1.8-4.4,3.6-8.9,5.7-13.2c1.5-3.2,3.3-6.3,5.1-9.3c2-3.3,4.3-6.5,6.5-9.7
	c1.8-2.5,3.7-4.8,5.5-7.2c2.5-3.2,5.1-6.3,7.6-9.5c1.8-2.3,3.5-4.5,5.1-6.9c3.2-4.6,6-9.4,8.3-14.6c0.6-1.4,1.1-2.8,1.7-4.3
	c-0.4,0-0.7,0-1.1,0c-8.5,0-17,0-25.5,0c-1.1,0-1.6,0.5-2,1.3c-0.9,1.8-2,3.6-2.8,5.5c-0.8,1.9-1.3,4-1.9,6
	c-0.1,0.3-0.4,0.6-0.6,0.6c-3.8,0-7.7,0-11.7,0c0.1-0.9,0.1-1.8,0.4-2.7c1-3.4,1.9-6.8,3.2-10.1c1.5-3.9,3.2-7.6,4.8-11.4
	c0.4-0.9,0.8-1.3,1.9-1.2c18.7,0,37.5,0,56.2,0c0.4,0,0.8,0,1.4,0c-0.3,2.6-0.4,5-0.8,7.4c-0.8,5.3-2.5,10.4-5,15.2
	c-1.6,3.2-3.4,6.4-5.3,9.5c-2.1,3.3-4.4,6.6-6.7,9.8c-1.6,2.3-3.3,4.6-5,6.8c-2.5,3.3-5,6.6-7.4,9.9c-1.7,2.3-3.3,4.6-4.9,6.9
	c-3,4.6-5.9,9.3-8.1,14.3c-1.8,3.9-3.2,8-3.9,12.3c-0.1,0.5-0.2,0.7-0.8,0.7c-7.2,0-14.4,0-21.6,0
	C135.5,101.8,135.4,101.8,135.1,101.7z"/>
<path d="M283.3,9c-0.3,1.4-0.4,2.7-0.7,4c-0.9,3.3-2.4,6.3-5,8.6c-0.3,0.3-0.9,0.5-1.3,0.5c-6.5,0-13.1,0.1-19.6,0
	c-3.1,0-5.2,1.3-6.5,4c-0.2,0.5-0.5,0.6-1,0.6c-13.8,0-27.6,0-41.4,0c-0.2,0-0.4,0-0.6,0c0.2-0.8,0.5-1.5,0.7-2.3
	c1.5-4.6,2.3-9.4,2.8-14.2c0.1-0.8,0.3-1.1,1.2-1.1c20.6,0,41.2,0,61.8,0c2.8,0,5.6,0,8.4,0C282.4,9,282.7,9,283.3,9z"/>
<path d="M184.2,63.5c0.1-0.3,0.1-0.4,0.2-0.5c1-1.3,2-2.7,3.1-4c0.2-0.3,0.8-0.4,1.2-0.4c6.3,0,12.7,0.1,19-0.1c2.5-0.1,5-0.8,7-2.3
	c0.8-0.6,1.6-1.5,2.1-2.5c1.9-3.8,3.6-7.7,5.3-11.6c0.3-0.7,0.6-1.5,0.9-2.3c-2.2,0-4.3,0-6.5,0c-1.9,0-3.8,0-5.8,0
	c-1.4,0-1.9,0.4-2.5,1.7c-0.8,1.8-0.7,3.7-0.5,5.6c0.2,1.6,0.4,3.1,0.5,4.8c-0.7-1-1.5-1.9-2.2-2.9c-0.7-1-1.3-2.2-1.9-3.3
	c-2-3.2-2.2-6.7-1.1-10.2c0.4-1.2,0.9-2.4,1.5-3.6c0.1-0.2,0.5-0.4,0.8-0.5c0.1,0,0.2,0,0.4,0c13.1,0,26.1,0,39.2,0
	c0.3,0,0.5,0,0.9,0c-0.1,0.3-0.2,0.6-0.3,0.8c-1.9,2.5-4,4.7-7.5,4.5c-1.3-0.1-2.6,0.4-3.9,0.7c-1.1,0.3-1.9,1.1-2.5,2.1
	c-2.1,3.7-4.2,7.4-6.3,11.2c-1.4,2.5-2.8,5-4.4,7.5c-1.3,2-3.1,3.5-5.3,4.6c-1.6,0.8-3.2,0.9-5,0.9c-8.5-0.1-16.9-0.1-25.4-0.2
	C184.9,63.5,184.6,63.5,184.2,63.5z"/>
</svg>
